# xmcd CD database file
# Copyright (C) 2002 Ti Kan
# 
# Track frame offsets:
#     182
#     22967
#     40370
#     59725
#     76742
#     101457
#     107095
#     138840
#     165152
#     183935
#     229132
# 
# Disc length: 3325 seconds
# 
# Revision: 1
# Processed by: cddbd v1.4PL0 Copyright (c) Steve Scherf et al.
# Submitted via: DiscPlay 4.0.4
# 
DISCID=7f0cfb0b
DTITLE=Jacobites - Howling good times
DYEAR=1900
DGENRE=
TTITLE0=Don't you ever leave me
TTITLE1=Can't you see
TTITLE2=100 miles from here
TTITLE3=Howling good times
TTITLE4=Some people
TTITLE5=Ambulance
TTITLE6=Chelsea springtime
TTITLE7=Older woman
TTITLE8=Margaritta
TTITLE9=Flying
TTITLE10=Don't you ever leave me (reprise)
EXTD=
EXTT0=
EXTT1=
EXTT2=
EXTT3=
EXTT4=
EXTT5=
EXTT6=
EXTT7=
EXTT8=
EXTT9=
EXTT10=
PLAYORDER=
